<svg xmlns="http://www.w3.org/2000/svg" viewBox="0 0 512 512"><defs><style>.a{fill-rule:evenodd;}.b,.c,.d{stroke:#fff;}.b{stroke-miterlimit:4.25;stroke-width:3.77px;}.c,.d{stroke-miterlimit:4.25;}.c{stroke-width:3.77px;}.d{stroke-width:3.77px;}</style></defs><path class="a" d="M216,237.47l18.36,18.25L216,274H86.8v60.81L8,255.72,86.8,178v59.48Z"/><path class="a" d="M274.53,216l-18.25,18.36L238,216V86.8H177.22L256.28,8,334,86.8H274.53Z"/><path class="a" d="M296,274.53l-18.36-18.25L296,238H425.2V177.21L504,256.28,425.2,334V274.53Z"/><path class="a" d="M237.47,296l18.25-18.36L274,296V425.2h60.81L255.72,504,178,425.2h59.48Z"/><path class="b" d="M82.17,82.17h157v157h-157Z"/><path class="b" d="M272.82,82.17h157v157h-157Z"/><path class="b" d="M272.82,272.82h157v157h-157Z"/><path class="b" d="M82.17,272.82h157v157h-157Z"/><path class="c" d="M10.17,256l111-111,111,111-111,111Z"/><path class="d" d="M145,121.19l111-111,111,111-111,111Z"/><path class="b" d="M279.79,256l111-111,111,111-111,111Z"/><path class="c" d="M145,390.81l111-111,111,111-111,111Z"/></svg>