<svg xmlns="http://www.w3.org/2000/svg" viewBox="0 0 512 512"><defs><style>.a{fill:#ea4335;}.b{fill:#4285f4;}.c{fill:#34a853;}.d{fill:#fbbc05;}</style></defs><path class="a" d="M324.89,163.41H340.5l44.5-44.5,2.19-18.9C304.36,26.89,178,34.79,104.84,117.62a199.89,199.89,0,0,0-43.09,80,24,24,0,0,1,15.61-.92l89-14.69s4.52-7.5,6.89-7a111,111,0,0,1,152-11.56Z"/><path class="b" d="M448.41,197.62A200.44,200.44,0,0,0,388,100.19l-62.46,62.45a111.08,111.08,0,0,1,40.76,88.09v11.09a55.6,55.6,0,0,1,0,111.2H255.09L244,384.26V451l11.09,11.09h111.2a144.64,144.64,0,0,0,82.12-264.43Z"/><path class="c" d="M143.74,461.34h111.2v-89H143.74a55.28,55.28,0,0,1-23-5l-15.62,4.86-44.81,44.5-3.9,15.61A143.49,143.49,0,0,0,143.74,461.34Z"/><path class="d" d="M143.74,172.63A144.59,144.59,0,0,0,56.46,431.84l64.48-64.48a55.59,55.59,0,1,1,73.55-73.54L259,229.34A144.27,144.27,0,0,0,143.74,172.63Z"/></svg>