<svg xmlns="http://www.w3.org/2000/svg" viewBox="0 0 512 512"><defs><style>.a{fill:#8e134a;}.a,.b{fill-rule:evenodd;}.b,.c{fill:#ca2171;}</style></defs><path class="a" d="M248.78,306.88a51.25,51.25,0,1,1,.23,0h-.23"/><path class="b" d="M349,279.14a23.77,23.77,0,1,1,23.73-23.8v.07a23.65,23.65,0,0,1-23.57,23.73H349"/><path class="b" d="M435.81,301.51h0a22.75,22.75,0,1,1,.49-1.86c-.23.57-.23,1.18-.49,1.86"/><path class="b" d="M419,240.35a23.76,23.76,0,1,1,17.58-28.65l.06.27a24.31,24.31,0,0,1,.23,9.31A22.7,22.7,0,0,1,419,240.54"/><path class="b" d="M503.47,299a23.77,23.77,0,1,1-19.3-27.51h0a23.87,23.87,0,0,1,19.76,25.39,6.44,6.44,0,0,0-.46,2.12"/><path class="b" d="M484.17,239.33A23.69,23.69,0,1,1,503.66,212a25.67,25.67,0,0,1,.23,6.13,23.58,23.58,0,0,1-19.72,21.15"/><path class="b" d="M467.56,381.09h0a24.11,24.11,0,1,1,2.91-9.72,21.49,21.49,0,0,1-2.91,9.72"/><path class="b" d="M459,163a23.85,23.85,0,1,1,9.05-32.48l0,.05A22.35,22.35,0,0,1,471,144.26,23.75,23.75,0,0,1,459,163"/><path class="c" d="M249.65,494.63C117.86,496.29,9.68,390.8,8,259S111.85,19,243.64,17.37c2,0,4,0,6,0a236.35,236.35,0,0,1,144.94,49.2l-29.17,37.84C281.79,40.32,162,56.16,98,139.78S49.69,343.15,133.32,407.24a191.3,191.3,0,0,0,232.06.31l29.1,38.07A236.52,236.52,0,0,1,249.65,494.63Z"/></svg>