<svg xmlns="http://www.w3.org/2000/svg" viewBox="0 0 512 512"><defs><style>.a{fill:#0f4bd7;}.b{fill:#1563ff;}</style></defs><polygon class="a" points="495.82 91.58 495.82 46.14 386.81 109.55 386.81 147.91 299.58 336.08 255.96 366.15 255.96 504 349.44 450.03 495.82 91.58"/><polygon class="a" points="255.96 268.03 190.57 115.41 190.57 72.25 190.12 72.02 125.11 109.55 125.11 147.91 212.34 344.38 255.96 322.76 255.96 268.03"/><polygon class="b" points="430.43 8 321.43 71.79 321.43 71.79 321.43 71.86 321.35 71.86 321.43 71.86 321.43 115.41 255.96 268.03 255.96 319.03 212.34 344.38 125.11 147.91 125.11 109.47 190.57 71.86 81.49 8 16.11 46.14 16.11 92.95 163.32 450.49 255.96 504 255.96 369.65 299.58 344.38 299.05 344 386.81 147.91 386.81 109.55 386.81 109.47 495.89 46.14 430.43 8"/></svg>