<svg xmlns="http://www.w3.org/2000/svg" viewBox="0 0 512 512"><defs><style>.a{fill:#0089d6;}</style></defs><path class="a" d="M236.86,433.11C302.64,421.49,357,411.87,357.6,411.74l1.13-.24-62.1-73.87c-34.16-40.63-62.1-74-62.1-74.22,0-.36,64.12-177,64.48-177.58.12-.21,43.76,75.13,105.79,182.63L511.19,452.87l.81,1.42-197.37,0-197.37,0Z"/><path class="a" d="M0,410.58c0-.1,29.26-50.9,65-112.88l65-112.7,75.78-63.59c41.68-35,75.89-63.64,76-63.7a13,13,0,0,1-1.22,3.07l-82.29,176.5L117.54,410.62l-58.77.08C26.45,410.74,0,410.69,0,410.58Z"/></svg>