<svg xmlns="http://www.w3.org/2000/svg" viewBox="0 0 512 512"><defs><style>.a{fill-rule:evenodd;}</style></defs><path class="a" d="M249.16,306.12a51.24,51.24,0,1,1,.23,0h-.23"/><path class="a" d="M349.33,278.38a23.77,23.77,0,1,1,23.73-23.81v.08a23.65,23.65,0,0,1-23.58,23.73h-.15"/><path class="a" d="M436.18,300.74h0a22.59,22.59,0,1,1,.5-1.85c-.23.57-.23,1.17-.5,1.85"/><path class="a" d="M419.38,239.59A23.77,23.77,0,1,1,437,210.94a2.68,2.68,0,0,1,.07.27,24.26,24.26,0,0,1,.22,9.3,22.71,22.71,0,0,1-17.86,19.27"/><path class="a" d="M503.85,298.25a23.77,23.77,0,1,1-19.31-27.52h0a23.89,23.89,0,0,1,19.75,25.4,6.38,6.38,0,0,0-.45,2.12"/><path class="a" d="M484.55,238.57A23.69,23.69,0,1,1,504,211.21a25.65,25.65,0,0,1,.23,6.13,23.59,23.59,0,0,1-19.72,21.15"/><path class="a" d="M467.93,380.33h0a24.09,24.09,0,1,1,2.92-9.73,21.42,21.42,0,0,1-2.92,9.73"/><path class="a" d="M459.38,162.2a23.84,23.84,0,1,1,9.06-32.48l0,0a22.45,22.45,0,0,1,2.92,13.74,23.77,23.77,0,0,1-12,18.7"/><path d="M250,493.86C118.24,495.52,10.06,390,8.4,258.24S112.23,18.27,244,16.61q3,0,6,0A236.33,236.33,0,0,1,395,65.81l-29.18,37.84C282.17,39.56,162.42,55.39,98.33,139S50.07,342.39,133.69,406.48a191.3,191.3,0,0,0,232.07.3l29.1,38.08A236.51,236.51,0,0,1,250,493.86Z"/></svg>