<svg xmlns="http://www.w3.org/2000/svg" viewBox="0 0 512 512"><defs><style>.a{fill:#252f3e;}.b{fill:#f90;fill-rule:evenodd;}</style></defs><path class="a" d="M144.29,214.11a51.66,51.66,0,0,0,1.87,15.16,90.6,90.6,0,0,0,5.45,12.26,7.39,7.39,0,0,1,1.19,3.91c0,1.71-1,3.41-3.23,5.11l-10.73,7.15a8.23,8.23,0,0,1-4.43,1.54,7.86,7.86,0,0,1-5.11-2.39,52.74,52.74,0,0,1-6.13-8c-1.7-2.9-3.4-6.13-5.28-10Q98,262.31,67.83,262.3c-14.31,0-25.71-4.09-34.06-12.26S21.17,231,21.17,217.35c0-14.48,5.11-26.23,15.5-35.08S60.85,169,78.39,169a133.45,133.45,0,0,1,18,1.37c6.3.85,12.77,2.21,19.58,3.74V161.66c0-12.94-2.73-22-8-27.24-5.45-5.28-14.65-7.84-27.76-7.84a77.1,77.1,0,0,0-18.39,2.22,134.5,134.5,0,0,0-18.39,5.79,49.38,49.38,0,0,1-6,2.21,10.49,10.49,0,0,1-2.73.51c-2.38,0-3.57-1.7-3.57-5.28v-8.34c0-2.73.34-4.77,1.19-6a12.7,12.7,0,0,1,4.77-3.58,98.15,98.15,0,0,1,21.45-7.66,103.45,103.45,0,0,1,26.57-3.24c20.26,0,35.08,4.6,44.61,13.8,9.37,9.19,14.14,23.16,14.14,41.89v55.17ZM75.15,240a55.27,55.27,0,0,0,17.54-3.06A38,38,0,0,0,108.87,226a27.08,27.08,0,0,0,5.79-10.9,61.21,61.21,0,0,0,1.7-14.81v-7.16a142.53,142.53,0,0,0-15.67-2.89,128.41,128.41,0,0,0-16-1c-11.41,0-19.76,2.21-25.38,6.81S51,207.13,51,215.64c0,8,2,14,6.3,18.05C61.36,238,67.32,240,75.15,240Zm136.74,18.39c-3.07,0-5.11-.51-6.47-1.7-1.36-1-2.56-3.4-3.58-6.64l-40-131.63a29.58,29.58,0,0,1-1.54-6.81c0-2.73,1.37-4.26,4.09-4.26h16.69c3.23,0,5.45.51,6.64,1.7,1.36,1,2.38,3.41,3.41,6.64l28.6,112.73,26.57-112.73c.85-3.4,1.87-5.61,3.23-6.64s3.75-1.7,6.81-1.7H270c3.23,0,5.45.51,6.81,1.7,1.36,1,2.55,3.41,3.23,6.64l26.91,114.1,29.46-114.1c1-3.4,2.21-5.61,3.4-6.64,1.37-1,3.58-1.7,6.65-1.7h15.83c2.73,0,4.26,1.36,4.26,4.26a17,17,0,0,1-.34,2.72,24.24,24.24,0,0,1-1.19,4.26l-41,131.63c-1,3.41-2.22,5.62-3.58,6.64a10.89,10.89,0,0,1-6.47,1.7H299.25c-3.24,0-5.45-.51-6.81-1.7s-2.56-3.4-3.24-6.81L262.81,140.21,236.58,249.87c-.85,3.41-1.87,5.62-3.23,6.81s-3.75,1.7-6.82,1.7ZM430.71,263a112.92,112.92,0,0,1-26.23-3.06c-8.51-2.05-15.15-4.26-19.58-6.81-2.72-1.54-4.6-3.24-5.28-4.77a12.08,12.08,0,0,1-1-4.77v-8.69c0-3.57,1.36-5.27,3.92-5.27a9.63,9.63,0,0,1,3.06.51c1,.34,2.56,1,4.26,1.7a92.77,92.77,0,0,0,18.73,6,102.39,102.39,0,0,0,20.26,2c10.73,0,19.08-1.87,24.87-5.62A18.32,18.32,0,0,0,462.55,218a16.55,16.55,0,0,0-4.6-11.92c-3.06-3.24-8.85-6.13-17.2-8.86l-24.69-7.66c-12.43-3.92-21.62-9.71-27.24-17.37a40.57,40.57,0,0,1-8.52-24.69,38,38,0,0,1,4.6-18.9,43.88,43.88,0,0,1,12.26-14,54.13,54.13,0,0,1,17.71-8.85,74,74,0,0,1,21.46-2.9,85.74,85.74,0,0,1,11.41.68c3.91.52,7.49,1.2,11.06,1.88,3.41.85,6.65,1.7,9.71,2.72a36.89,36.89,0,0,1,7.15,3.07,14.65,14.65,0,0,1,5.11,4.25,9.21,9.21,0,0,1,1.53,5.62v8c0,3.57-1.36,5.45-3.91,5.45-1.36,0-3.58-.68-6.47-2.05a78.05,78.05,0,0,0-32.7-6.64c-9.7,0-17.37,1.53-22.65,4.77s-8,8.17-8,15.16a16.08,16.08,0,0,0,5.11,12.09c3.4,3.23,9.71,6.47,18.73,9.36l24.18,7.66c12.26,3.92,21.12,9.37,26.4,16.35a38.59,38.59,0,0,1,7.83,23.84,43.7,43.7,0,0,1-4.43,19.75,45.76,45.76,0,0,1-12.43,15,55,55,0,0,1-18.9,9.54A81.1,81.1,0,0,1,430.71,263Z"/><path class="b" d="M462.89,345.74c-56,41.38-137.42,63.35-207.41,63.35C157.4,409.09,69,372.82,2.27,312.53-3,307.77,1.76,301.3,8.06,305c72.2,41.89,161.26,67.27,253.38,67.27,62.16,0,130.44-12.95,193.28-39.51C464.08,328.54,472.09,338.93,462.89,345.74Z"/><path class="b" d="M486.22,319.18c-7.15-9.2-47.34-4.43-65.56-2.22-5.45.68-6.3-4.08-1.36-7.66,32-22.48,84.63-16,90.76-8.51,6.13,7.66-1.7,60.28-31.67,85.48-4.6,3.92-9,1.87-7-3.24C478.22,366.17,493.37,328.2,486.22,319.18Z"/></svg>